<svg width="95" height="98" viewBox="0 0 95 98" fill="none" xmlns="http://www.w3.org/2000/svg">
  <g opacity="0.75">
    <path d="M93.5414 58.9779C93.7717 58.4406 94.002 57.8648 94.309 57.3275C93.9252 57.8648 93.8101 57.7879 93.7717 57.4425V57.3275C93.7717 57.2123 93.7716 57.0588 93.81 56.8669C93.81 56.9053 93.8101 56.9051 93.7717 56.9435C93.7717 56.7516 93.7717 56.598 93.8484 56.4061C93.8484 56.5596 93.81 56.7134 93.81 56.8669C93.8484 56.7901 93.8869 56.598 93.8869 56.4061C93.9636 56.2525 94.1171 56.1375 94.3474 56.0223C94.1171 55.792 94.1172 55.1778 94.0404 54.4869C94.0788 54.4101 94.1172 54.3334 94.1556 54.2566C94.0788 54.2182 94.0403 54.1415 93.9636 54.0648C93.9252 53.8345 93.8485 53.5658 93.7717 53.3739C93.6949 52.4911 93.9636 51.3397 93.4263 51.071C93.4263 50.9558 93.3878 50.879 93.3494 50.7639L94.0787 50.572L95 50.3417L94.1939 49.7659C94.2323 49.9194 94.2323 50.2264 94.1556 50.4183C93.8101 49.9577 93.4646 49.4972 93.0424 49.075C93.5414 48.1922 93.81 47.77 94.5393 48.6528C93.4262 46.5417 94.0787 46.9255 92.9656 45.1982L93.5414 45.2367C93.4263 44.5841 92.5434 43.6629 92.9656 43.2407C93.0807 43.0104 93.1576 42.7034 93.196 42.3579L93.4263 42.4348L93.196 42.1276C93.196 41.5135 93.1192 40.7457 92.9273 39.8629L93.1576 39.9398C93.0424 39.5943 92.8889 39.2106 92.697 38.8267C92.2364 36.754 91.5455 34.3359 91.2768 32.3784C90.6243 33.0309 90.6627 32.5317 90.6627 31.956C90.6627 31.3802 90.6242 30.651 90.0101 30.843C90.1636 30.651 90.202 30.3823 90.3555 30.2671L90.4707 30.344L90.3555 30.2289C90.4323 30.1522 90.5858 30.152 90.8161 30.3055C89.6263 28.7318 90.2021 27.3116 88.5132 26.6975C88.7435 26.3137 89.2041 26.7743 89.3192 26.5056C89.1657 26.4289 88.7051 26.1602 88.8202 25.8532C88.897 25.5461 89.2425 25.93 89.5495 26.1219C88.4748 24.3946 87.3233 24.8552 86.2869 25.3542C86.2486 24.7784 86.2102 24.3946 85.9799 24.1643C85.9032 24.0875 85.7879 24.0108 85.6728 23.9724C85.6728 23.9341 85.6728 23.8956 85.6728 23.8572C85.6728 23.8956 85.6345 23.9341 85.6345 23.9724C85.4426 23.8957 85.2122 23.8189 84.8668 23.7422C84.9819 23.2816 84.9435 22.5906 85.7879 23.4734C85.4425 22.9361 83.7537 19.7502 82.986 20.326C83.0244 20.0189 82.4102 19.5966 82.2183 19.5199C81.2971 18.4067 81.2204 18.2149 80.2224 17.217C80.5679 17.3321 80.7598 17.1786 81.2587 17.4472C79.7234 15.9887 81.9113 17.6392 81.1436 16.2958C81.489 16.5261 81.7578 16.7948 82.0265 17.0251C81.8345 16.6796 81.6426 16.3341 81.489 15.9887V16.0655C81.489 16.1807 81.489 16.2573 81.4506 16.1421L81.4123 16.1037C81.3355 16.1421 81.2588 16.1422 81.182 16.1805C80.5295 16.3341 79.5315 15.8351 79.5699 16.718C79.8386 16.9483 80.0305 17.1017 80.184 17.1401L80.3376 17.4857C79.1861 17.7927 79.3012 16.7946 78.3416 16.1037L78.4184 16.0655C77.9962 15.3746 77.6891 15.0291 77.4971 14.8372C77.6891 14.2999 77.8427 13.6473 77.8043 13.0715C77.6124 13.2634 77.4971 13.3785 76.4224 12.9947C76.4992 13.3017 77.0749 14.1463 77.1517 14.6069C77.1517 14.5685 77.1134 14.5685 77.1134 14.5685C76.8447 14.4534 76.6528 14.2614 75.8084 13.1099L75.6931 13.3786C75.6931 13.3403 75.6932 13.3402 75.6548 13.3402C75.6548 13.724 75.1942 13.6857 74.6568 13.6473C74.273 13.2251 73.8891 12.2655 73.3134 11.6513C73.8891 11.114 73.1599 10.8837 72.3538 10.7302C72.2003 11.0372 72.3538 11.1907 72.6225 11.3442L72.7761 11.7666C72.2771 11.7282 72.0084 10.7686 71.7781 9.84744C72.8144 9.92421 74.0427 10.0392 74.772 10.9221C74.772 9.84732 74.465 10.8068 74.2347 9.42505C74.2347 10.8452 71.2408 7.54443 71.7014 9.34844C71.6246 8.7727 71.3943 8.42722 71.1256 8.12015C71.2024 8.08177 71.5478 8.1968 71.7781 8.23518C71.0488 7.35237 70.8185 7.42927 70.6649 7.65957C70.3963 7.39089 70.0893 7.08364 69.7822 6.50789C69.7438 6.62304 69.7821 6.81506 69.7054 6.85344C69.667 6.77667 69.5519 6.69992 69.4368 6.62315C69.36 6.508 69.1681 6.43124 68.9378 6.39286C68.861 6.35448 68.7842 6.3544 68.6306 6.31602C68.6306 6.31602 68.6691 6.31606 68.6691 6.35444C68.5539 6.31606 68.4004 6.31602 68.2085 6.31602C67.0186 6.20087 65.3297 6.12415 64.6004 5.16457C64.6772 5.35649 64.754 5.54846 64.754 5.70199C64.5237 5.27978 64.2934 4.93439 65.3297 5.04954L63.9479 4.51212C63.257 3.89799 62.1823 3.32229 61.4147 3.36067C60.7622 3.05361 59.5338 3.5909 60.2247 3.28383L57.9218 3.13038L57.9601 2.9767C56.8854 2.63125 55.6571 2.74637 54.4672 2.70799C53.2773 2.6696 52.0875 2.43938 50.8209 1.82525C50.0532 1.9404 49.2472 2.09397 47.9806 1.86367L47.7501 1.28783C46.7906 1.40298 44.7564 0.865724 44.3725 1.40309C43.7968 0.750574 42.5684 0.597023 41.3018 0.904088C40.0351 1.13439 38.6917 1.59496 37.8089 1.59496L37.8473 2.32425C36.6958 2.47778 35.6211 3.01505 34.2777 3.66757L34.4696 4.12815C33.9706 4.2433 33.5101 4.43534 33.0878 4.74241C33.0495 4.78079 33.0111 4.78083 32.9727 4.78083C32.9727 4.70406 32.9726 4.58881 33.1262 4.43528C32.8575 4.6272 32.5505 4.78071 32.2434 4.89586C31.3606 5.01101 30.3626 5.16467 29.4414 5.51012C29.4798 5.24144 29.9787 5.12615 30.3626 5.12615C29.6717 5.011 29.0576 5.08772 28.4818 5.31802C28.0596 5.50993 27.6758 5.77866 27.3304 6.08573C26.7162 6.31603 26.2172 6.66159 25.9485 7.16057C25.3344 7.62117 24.6434 8.00497 23.8758 8.08173C23.5303 8.54233 23.185 8.6958 22.7628 8.73418C22.8011 8.6958 22.8395 8.65757 22.8395 8.65757C22.8011 8.69596 22.7244 8.6958 22.6476 8.73418C22.3789 8.77256 22.1102 8.77264 21.8415 8.81102C22.1102 8.84941 22.3788 8.84937 22.5708 8.7726C22.2253 8.96452 21.7264 9.38685 21.3042 9.84744L20.69 9.42505C20.6516 9.46343 20.6517 9.46351 20.6133 9.50189C19.9608 9.57866 20.3829 10.0009 20.9203 10.2696C20.7284 10.4999 20.5749 10.8068 20.4982 11.0755C19.4618 10.4614 19.4618 12.304 18.2336 11.7666C18.2336 12.1121 17.6961 12.6492 17.1971 13.2634C17.1204 13.3785 17.0052 13.5322 16.9284 13.6858C15.5082 14.7605 14.1265 15.8352 12.8598 17.0251V16.9098C12.8598 16.9866 12.8215 17.0249 12.8215 17.0633C11.8619 17.9461 10.9023 18.9059 10.0579 19.9038C10.4034 19.9806 10.7488 20.019 11.1326 20.1341C11.0943 20.2109 11.0559 20.2493 11.0175 20.3644C10.7488 20.6715 10.4801 21.0551 10.1731 21.4006C9.75084 21.5925 9.17506 21.3622 9.90435 20.441C9.0983 20.5562 9.13667 22.1683 9.2902 22.437C9.17505 22.5138 9.09834 22.629 8.98319 22.7442C7.87007 23.5502 8.8296 21.0937 8.44576 21.5927L7.94676 22.3986L8.17705 22.2836C8.10029 23.1664 8.33065 23.3966 7.63975 24.548C7.63975 24.5864 7.63971 24.5865 7.60133 24.5865C6.9872 25.2006 6.83366 24.6249 6.64175 24.8936C6.60337 24.8552 6.48819 24.9319 6.37304 25.3158L5.26001 27.0431L6.29631 26.7743C5.45188 28.1561 4.6074 29.5764 3.72459 30.7279C4.64578 30.7279 4.26206 31.0348 3.83985 31.457C3.41763 31.8792 2.95697 32.3782 3.53272 32.6853C3.1105 32.7237 2.68832 33.1459 2.61156 32.4934C2.34287 34.4509 0.960999 35.0268 1.69028 36.6773C1.26806 36.7924 1.22979 36.1397 0.961107 36.2549C0.99949 36.4084 1.11456 36.9459 0.884265 37.061C0.615583 37.1762 0.65398 36.7156 0.53883 36.3701C0.116615 38.2509 1.11459 38.7498 2.11256 39.1336C2.07417 39.2104 2.07422 39.2874 2.03583 39.3642C2.07422 39.3258 2.15097 39.2489 2.26612 39.2105C1.88229 39.5943 1.69036 39.9399 1.65198 40.2853C1.65198 40.3237 1.69028 40.362 1.69028 40.4003C1.53675 40.5923 1.42161 40.8226 1.34485 41.1296C1.30646 41.1296 1.30654 41.1681 1.30654 41.2065V40.8993C1.26816 41.0913 1.15298 41.5518 1.03783 42.0508C0.884298 42.5114 0.654031 42.9338 0.231816 43.2025C0.615648 43.0106 0.53883 43.8932 0.53883 44.6992C0.53883 45.3901 0.615658 46.0043 0.961107 45.966C0.99949 46.0811 0.999448 46.1579 1.03783 46.1962C0.807532 46.2346 0.46204 46.0044 0.154974 46.5034C0.500423 47.8468 0.193358 49.3054 0.154974 50.8407C0.078208 52.376 -0.1904 54.0649 0.231816 55.677C0.462115 55.677 0.769139 55.1011 1.26812 55.7536L0.270119 57.6344C0.500419 58.2485 1.72872 57.9798 1.15298 59.2848C1.30651 59.0929 1.57517 58.786 1.7287 59.1698C1.7287 59.5152 1.76704 59.8223 1.80543 60.1678C1.42159 60.8203 0.961027 61.5111 0.99941 61.9717C0.922644 62.202 0.730784 61.7414 0.577251 61.4727C0.346952 64.006 1.49846 61.5495 2.15098 63.1616C1.80553 63.5838 0.845873 63.1233 1.11456 64.2748C0.961022 64.9657 3.68621 66.9616 3.4943 68.7656C3.68621 68.305 3.87817 67.8443 4.4923 68.4585C5.10643 69.4564 4.60749 72.1048 6.21959 72.4887C6.21959 72.6422 6.18121 72.7574 6.10444 72.7958C6.37313 73.0645 6.75692 73.4484 7.14075 73.8706C7.29428 74.2928 7.52464 74.6765 7.67817 75.1371C7.94685 75.9432 8.29223 76.7108 8.56091 77.5553C8.44576 76.5573 8.82964 77.0179 9.21348 77.5169C9.17509 77.3633 9.21347 77.2867 9.32862 77.21C9.5973 77.517 9.94275 77.8241 10.2882 78.1311C10.2882 78.1311 10.2881 78.1311 10.3265 78.1311C10.48 78.6301 10.6336 79.1291 10.8255 79.6281C11.1326 79.5514 11.478 79.7432 11.7851 80.0119C11.7467 80.127 11.6699 80.2423 11.5548 80.3574L13.474 82.2766L13.0518 82.929L13.7042 82.8522C14.7022 83.8885 15.5083 83.9271 16.2376 83.9654C16.4295 84.3493 16.084 84.3108 15.9688 84.3492C16.9284 85.6158 17.5042 86.1531 18.3103 86.4602C18.2335 86.3834 18.1951 86.23 18.1183 86.1149C18.2334 86.0765 18.3487 86.0381 18.4638 86.0765C18.5406 86.0765 18.5405 86.23 18.6173 86.3452C18.5405 86.3836 18.4638 86.4218 18.387 86.4602C18.8092 86.6137 19.3082 86.729 19.9607 86.8442C20.0759 86.9209 20.2294 87.0359 20.3446 87.1127L20.3062 87.3048L20.0759 87.2663L19.8456 87.3814L20.3062 87.4198L20.2679 87.6117C20.5749 87.6117 21.0739 88.2259 21.8032 88.9168C21.8416 88.9168 21.8415 88.9168 21.8415 88.9168C21.9566 89.0319 22.0335 89.1088 22.187 89.2239C23.1082 90.03 24.2596 91.0278 25.6798 91.2197C25.603 91.2581 25.5263 91.3734 25.2576 91.3734C26.5243 91.5653 27.6374 92.4865 28.7889 93.2541C28.1748 93.2925 28.4819 93.7915 29.7485 94.2137C29.4415 93.9834 29.096 93.6764 29.2495 93.5612C29.3263 93.5996 29.403 93.6763 29.5181 93.7147C30.0555 94.0218 30.5546 94.2904 31.0535 94.4056C31.0152 94.4439 30.9767 94.4441 30.9 94.5208C31.0919 94.2905 30.7848 94.4824 30.2858 94.5208L31.399 94.559C31.399 94.5206 31.399 94.4824 31.399 94.444C32.0131 94.5591 32.5888 94.4823 33.0494 93.9066C33.4716 93.9449 33.9323 93.9449 34.3929 93.8681C34.7767 93.9833 35.1605 94.0985 35.5443 94.1753C35.5059 94.4056 35.5443 94.5974 35.0453 94.7893C35.5059 94.7125 36.1201 94.5974 36.1585 94.3287C36.7342 94.4823 37.3483 94.5976 37.9241 94.7511C38.1927 94.8663 38.3847 95.0198 38.3079 95.2117C41.1483 95.7107 44.0271 96.2095 46.8674 96.4782C46.6371 96.5933 46.3684 96.8237 47.0977 97.0156C46.6755 97.0924 46.2916 97.1309 45.9461 97.1309C46.33 97.2076 46.6754 97.3226 47.0593 97.4378L47.021 97.3996C46.9826 97.3612 46.9441 97.3227 46.9441 97.3227C46.9441 97.3227 46.9442 97.3227 47.021 97.3227H47.0593C47.0977 97.246 47.0977 97.1692 47.1361 97.0924C47.2513 96.9005 47.4815 96.7085 47.6734 96.555C48.9401 96.6318 50.2067 96.6702 51.4733 96.5934C51.5501 96.6702 51.6269 96.7854 51.7036 96.8621C51.7036 96.747 51.7037 96.6702 51.7805 96.555C52.0875 96.555 52.3561 96.5166 52.6632 96.5166C52.5864 96.4014 52.4714 96.248 52.3946 96.0944C52.5098 96.0561 52.6249 95.9794 52.74 95.941C52.6633 95.9026 52.433 95.8256 52.1643 95.7489C52.1259 95.7105 52.0876 95.6338 52.0492 95.557C52.5865 95.557 53.0854 95.4803 53.6228 95.4036C54.045 95.5571 54.2753 96.1327 53.1622 96.2479C53.8531 96.7469 55.0046 95.4804 55.0046 95.2501C57.3076 95.2885 54.3522 96.5549 55.0431 96.4782L55.5804 96.3631C56.0793 96.7854 55.8107 96.1713 56.8471 96.9006C55.8875 95.9794 59.4187 96.0945 58.9965 95.442C58.9965 95.442 59.0349 95.4036 59.0732 95.4036C60.0712 95.8642 60.6469 95.3651 62.0287 95.8257C61.9136 95.557 61.4146 95.442 62.5661 95.2117C62.5661 95.1349 62.6813 94.9813 62.7197 94.9046C62.7581 94.9046 62.758 94.9046 62.7964 94.9046H62.7197C62.4126 94.8662 62.1822 94.8278 62.0287 94.7127C62.2974 93.9834 63.7176 93.446 64.3317 92.947C64.4853 92.9086 64.6388 92.8703 64.7923 92.7935C64.8691 92.8703 64.4853 93.2158 64.8307 93.331C65.061 93.1007 65.253 92.8319 65.4833 92.5248C65.7136 92.9087 66.7115 92.8702 66.7115 93.1773C66.7115 93.2924 66.5964 93.4844 66.2126 93.7531L67.5559 93.1773C68.4771 93.1389 69.6671 92.7934 70.1661 92.2177C70.8569 91.9874 71.3175 90.7207 71.0488 91.45L72.8144 89.9532L72.8912 90.0682C73.9276 89.5693 74.6568 88.6098 75.578 87.8038C76.4608 86.9977 77.4972 86.3068 78.8023 85.8462C79.2629 85.232 79.685 84.5411 80.7597 83.8502L81.3355 84.0805C81.9112 83.3128 83.7536 82.2766 83.6385 81.5857C84.5213 81.6625 85.4809 80.8946 86.1718 79.7431C86.8627 78.6684 87.5152 77.4019 88.1294 76.7878L87.5919 76.327C87.7839 76.0583 87.9758 75.7513 88.1294 75.4442L88.0525 75.4058L88.1677 75.3674V75.3292C88.5515 74.5999 88.8202 73.7938 89.1657 72.8342L88.5515 72.6039C88.7818 71.3373 90.4324 69.9555 91.2384 68.1132C91.3919 68.3051 91.1232 68.7656 90.8545 69.0343C91.4303 68.6505 91.8141 68.1131 92.0444 67.5373C92.2363 66.9616 92.3132 66.3091 92.3515 65.695C92.4283 64.4283 92.5435 63.2384 93.3111 62.3172C93.2344 61.7415 93.3878 61.396 93.6181 61.0505V61.204C93.6181 61.1656 93.6566 61.0889 93.6566 61.0121C93.8101 60.8202 94.002 60.59 94.1556 60.3597C93.9637 60.5132 93.7716 60.7051 93.6949 60.8587C93.7716 60.4748 93.8484 59.8223 93.81 59.2082L94.5393 59.0929V58.9779C94.6928 58.786 94.1172 58.786 93.5414 58.9779ZM85.2122 24.7783C85.1738 24.7783 85.1738 24.7783 85.2122 24.7783C85.1738 24.7783 85.1738 24.7399 85.1738 24.7399C85.1738 24.7399 85.1738 24.7783 85.2122 24.7783ZM62.7197 4.43528C62.7197 4.47366 62.6813 4.4737 62.6813 4.4737C62.4894 4.32017 62.3742 4.24334 62.2974 4.16657C62.3742 4.20495 62.5278 4.28175 62.7197 4.43528ZM56.3864 4.20499C56.3096 4.24337 56.1945 4.28187 56.1561 4.32025C56.1561 4.28187 56.1178 4.24337 56.1178 4.20499C56.1945 4.20499 56.3096 4.20499 56.3864 4.20499ZM6.94888 25.0471C6.75696 25.7763 6.71852 25.5076 6.64175 25.2389L6.94888 25.0471ZM55.3501 96.6319C56.0026 96.0561 56.0409 95.7106 57.346 95.4036C57.4611 95.3652 57.5763 95.4036 57.6531 95.4036C57.039 95.9793 56.2329 96.5935 55.3501 96.6319ZM60.3783 94.4824C60.3399 94.4824 60.2631 94.5208 60.2247 94.5208C60.3782 94.4441 60.5319 94.4055 60.6854 94.3287C60.5702 94.3671 60.4934 94.444 60.3783 94.4824ZM61.2611 93.9834C61.1844 94.0218 61.1076 94.0601 61.0308 94.1368C61.0308 94.0985 61.0308 94.0602 60.9924 94.0218C61.1076 93.9834 61.2611 93.9449 61.3763 93.9066C61.3763 93.9066 61.2995 93.945 61.2611 93.9834ZM68.0549 92.7167C68.0549 92.7167 68.0549 92.6783 68.0549 92.7167C68.1701 92.6783 68.2468 92.6783 68.2852 92.6783C68.2468 92.6783 68.1701 92.6783 68.0549 92.7167ZM69.8205 90.3754C69.5134 91.0663 69.168 91.7188 67.7095 91.8724C67.6327 91.834 67.5559 91.8339 67.4792 91.7955C67.9782 91.5652 68.4004 91.4118 68.5923 91.4118C68.9762 90.9512 69.4367 90.529 69.8973 90.1835C69.859 90.2219 69.8589 90.2986 69.8205 90.3754ZM84.7516 71.0685C85.4041 71.0301 86.0566 71.1837 86.7475 71.6443C85.7879 72.2201 84.9435 72.2969 84.0991 72.1433C76.3073 84.5411 62.5278 92.7935 46.8674 92.7935C22.6476 92.7935 2.95699 73.1029 2.95699 48.8831C2.95699 43.9701 3.80137 39.2106 5.29831 34.7965C4.99125 34.8733 4.76102 34.9116 4.53072 34.95C4.49233 34.8348 4.45392 34.7196 4.37715 34.6044C4.56907 34.5277 4.79942 34.3359 5.02972 34.2975C5.14487 34.2975 5.29835 34.2973 5.45188 34.3357C11.478 17.2168 27.7525 4.93428 46.9057 4.93428C71.1255 4.93428 90.8161 24.6249 90.8161 48.8447C90.8161 56.9819 88.59 64.5817 84.7516 71.0685ZM90.7778 58.3252C90.5859 58.2869 90.394 58.1717 90.2021 58.0949C90.394 58.0182 90.5475 57.903 90.7394 57.8647C90.8162 57.8647 90.8929 58.0182 90.9697 58.0949C90.9313 58.1717 90.8546 58.3252 90.7778 58.3252Z" fill="white" />
    <path d="M43.7991 8.62012L43.7592 8.66016H43.7991V8.62012Z" fill="white" />
    <path d="M32.6653 10.0423L32.4734 10.0039L32.5501 10.2342L32.6653 10.0423Z" fill="white" />
    <path d="M46.8679 8.50488C45.8315 8.50488 44.7951 8.5818 43.7971 8.65857L43.8356 8.88886L43.6053 8.85043L43.7588 8.65857C22.9551 10.2707 6.48865 27.6582 6.48865 48.8841C6.48865 71.1464 24.6056 89.2633 46.8679 89.2633C47.8275 89.2633 48.787 89.2248 49.7466 89.1481H48.2496C48.0577 88.4572 47.8658 87.7663 47.6739 86.9986H49.7849C50.4374 87.7279 49.8617 88.4572 49.8233 89.1481C70.7422 87.6511 87.2854 70.1484 87.2854 48.8841C87.247 26.6218 69.1301 8.50488 46.8679 8.50488ZM10.327 51.2254C8.44619 49.8436 8.8684 48.3851 8.52295 47.1952C9.25223 46.3892 9.71284 47.3487 10.327 47.3487C10.826 47.3871 11.325 47.5023 12.2078 47.6558C10.5573 48.4235 8.83002 48.6921 10.327 51.2254ZM15.2784 72.3362C15.1633 72.1443 14.933 71.8757 14.9714 71.7222C15.0098 71.5686 15.3168 71.4918 15.5471 71.3766C15.7007 71.4918 15.8542 71.6452 16.0461 71.7603C15.8159 71.9523 15.5471 72.1443 15.2784 72.3362ZM16.3916 63.6231C16.2764 63.1625 16.0461 62.702 16.0461 62.2414C16.0461 61.6273 16.4299 61.2434 17.0825 61.2818C17.6582 61.3202 18.1571 61.6273 18.0036 62.3182C17.8501 62.9707 17.5047 63.5464 16.3916 63.6231ZM17.7733 21.7087L17.8117 21.5168L18.0805 21.6319L17.7733 21.7087ZM73.5441 49.0376C73.3522 49.1143 73.122 49.1528 72.8917 49.1528C72.8533 49.1528 72.8149 48.9993 72.7765 48.9225C73.0068 48.8841 73.1987 48.8072 73.429 48.7688C73.429 48.7688 73.5058 48.9608 73.5441 49.0376ZM72.2775 27.8118C72.4695 27.8885 72.6614 28.0037 72.8533 28.0805C72.7765 28.1956 72.6998 28.2722 72.6614 28.3874C72.4695 28.2722 72.2776 28.1572 72.0473 28.042C72.124 27.9653 72.2008 27.8118 72.2775 27.8118ZM72.5078 31.1511C72.3927 31.0743 71.8169 31.2277 71.8553 30.8055C71.7017 30.8055 72.3543 30.4218 72.5078 31.1511ZM70.2048 33.1853L70.2432 33.3005C70.2049 33.2621 70.2048 33.2621 70.2048 33.2621C70.2048 33.2621 70.2048 33.2236 70.2048 33.1853ZM61.7606 16.9877C62.106 16.4887 62.605 16.1432 63.0656 15.7209C63.2959 15.8745 63.4877 16.0665 63.718 16.2584C63.4494 16.8341 63.2574 17.4483 62.8736 17.9472C62.7585 18.1392 62.106 18.1392 61.8757 17.9857C61.6838 17.7937 61.607 17.1796 61.7606 16.9877ZM63.0656 35.949C63.1424 35.9106 63.3342 36.1793 63.6029 36.4096C63.2958 36.6399 62.9888 36.8317 62.7202 37.062C62.605 36.8701 62.3363 36.6014 62.3747 36.5246C62.5666 36.2943 62.7969 36.1025 63.0656 35.949ZM61.914 25.5855C62.0676 25.4703 62.2212 25.2399 62.3747 25.2399C62.5283 25.2783 62.7201 25.4703 62.8736 25.5855C62.7968 25.6622 62.6817 25.8542 62.6433 25.8542C62.413 25.7774 62.1827 25.7006 61.914 25.5855ZM56.1182 40.171C56.4253 40.3246 56.6556 40.6316 56.9243 40.9003C56.6556 41.0922 56.3485 41.3609 56.3101 41.3225C56.003 41.0538 55.7344 40.7084 55.4657 40.4013C55.6576 40.3246 55.9647 40.0943 56.1182 40.171ZM42.1851 29.3085C42.4538 29.5772 42.7609 29.8075 43.0295 30.0762C42.9144 30.3065 42.7993 30.4985 42.6841 30.6521C42.4154 30.4218 42.1083 30.2298 41.9164 29.9228C41.8396 29.846 42.07 29.5388 42.1851 29.3085ZM22.9551 64.6595C22.6864 64.506 22.4945 64.2374 22.2642 64.0071C22.4177 63.8919 22.6097 63.7768 22.8784 63.5465C23.0703 63.7768 23.2622 64.0455 23.4541 64.3142C23.2622 64.4294 22.9935 64.6979 22.9551 64.6595ZM22.3409 44.6618C22.4561 44.5083 22.5712 44.3932 22.6864 44.2396C22.8399 44.3548 23.0318 44.5083 23.1854 44.6618C22.9935 44.7386 22.8016 44.8155 22.6096 44.8539C22.5713 44.8539 22.4561 44.7386 22.3409 44.6618ZM24.2601 22.323C23.147 21.9775 22.0339 21.5553 20.6138 21.0563C22.341 20.0199 23.5309 20.4037 24.6824 21.2097C24.8359 21.3249 24.9126 21.7087 24.8742 21.9006C24.7975 22.1309 24.4136 22.3997 24.2601 22.323ZM27.4076 49.3447C26.9853 49.076 26.5632 48.8072 26.141 48.5386C26.4096 48.3083 26.7167 47.8477 26.9854 47.8477C27.2541 47.8477 27.5227 48.3083 27.753 48.5386C27.6378 48.884 27.5227 49.1144 27.4076 49.3447ZM30.9004 84.1199C30.7853 84.0815 30.6702 84.043 30.555 84.0046C30.6702 83.8895 30.7853 83.7361 30.9389 83.6593C30.9772 83.6593 31.0923 83.8128 31.2075 83.8896C31.1307 84.0047 31.0156 84.0431 30.9004 84.1199ZM33.0883 19.2906L33.0499 19.5208L32.7812 19.3674L33.0883 19.2906ZM33.0499 55.8315L32.9347 55.4859L33.2035 55.5243L33.0499 55.8315ZM33.7025 30.8055C33.6641 30.652 33.664 30.4985 33.6256 30.3834C33.7408 30.4217 33.856 30.3834 33.9327 30.4602C33.9711 30.4986 33.971 30.6138 33.971 30.7289C33.8943 30.7289 33.7792 30.7671 33.7025 30.8055ZM34.5085 21.9006C34.3166 21.7854 34.163 21.6704 33.971 21.5168C34.0478 21.2866 34.1247 21.0563 34.163 20.826C34.3549 20.9411 34.662 21.0562 34.7388 21.2481C34.7771 21.4017 34.5852 21.6703 34.5085 21.9006ZM57.8838 60.8981C57.8071 60.7062 57.5767 60.3606 57.6151 60.2838C57.8454 60.0535 58.1525 59.9001 58.4596 59.7082C58.5747 59.9385 58.8051 60.2454 58.7667 60.2838C58.4596 60.5525 58.1909 60.7062 57.8838 60.8981ZM62.6433 66.0413C62.4898 66.1948 62.0676 66.3102 61.9524 66.2334C61.4919 65.8496 61.1081 65.3889 60.6859 64.9283C60.8778 64.698 61.0697 64.5061 61.2616 64.2758C61.7606 64.6596 62.2596 65.005 62.7202 65.3888C62.7969 65.504 62.7585 65.9261 62.6433 66.0413ZM63.1039 61.9727C63.0271 61.9727 62.9504 61.7807 62.8736 61.704C63.1039 61.6272 63.3343 61.5121 63.5646 61.4737C63.6414 61.4737 63.7181 61.6657 63.7949 61.7808C63.5646 61.8576 63.3342 61.9343 63.1039 61.9727ZM64.5625 49.7284L39.0761 67.9604C39.2296 68.3059 39.3447 68.6514 39.4982 68.9585C39.3447 69.1504 39.268 69.3424 39.1528 69.3424C38.9225 69.3424 38.5387 69.3423 38.4619 69.2272C38.2316 68.7666 38.1165 68.2675 38.0014 67.7302C38.0014 67.6918 38.0397 67.5767 38.1165 67.5383V31.0358C38.1165 30.5752 38.6538 30.3065 39.0377 30.5752L64.6009 48.8457C64.908 48.9992 64.9079 49.4981 64.5625 49.7284ZM65.4453 68.6131C65.2534 68.5364 65.0615 68.3827 64.8696 68.2676C65.0999 68.1908 65.2918 68.0757 65.5221 68.0373C65.5604 68.0373 65.714 68.2293 65.714 68.3444C65.6757 68.4596 65.5221 68.6131 65.4453 68.6131ZM67.6715 72.413C67.6331 72.2979 67.5181 72.1827 67.5181 72.1059C67.5181 71.9908 67.6332 71.9139 67.7099 71.7988C67.7483 71.9139 67.8635 72.0292 67.8635 72.1443C67.8251 72.2211 67.7099 72.2979 67.6715 72.413ZM70.5119 62.2798L70.2048 62.1645L70.5119 62.0495V62.2798ZM71.0109 40.9387L71.6634 40.8235C72.3159 40.8235 71.318 41.5529 70.6271 42.167C70.819 41.86 71.0109 41.4761 71.0109 40.9387ZM71.625 54.9869C71.5482 54.9869 71.4331 54.8718 71.318 54.795C71.4331 54.7566 71.5482 54.6416 71.625 54.6416C71.7401 54.6416 71.817 54.7567 71.9321 54.8335C71.8553 54.8718 71.7401 54.9869 71.625 54.9869ZM71.7401 33.9146L71.5867 33.5692L72.124 32.955L71.7401 33.9146ZM73.2371 67.8454C72.2392 67.5 72.3159 66.6172 72.5846 65.7344C73.4674 66.0415 74.3118 66.3868 75.3866 66.809C74.8492 68.2292 74.0048 68.1525 73.2371 67.8454ZM77.2673 51.1104C77.1906 51.1104 77.037 50.9567 77.037 50.9183C77.1138 50.7648 77.2289 50.6112 77.3825 50.4193C77.4208 50.6112 77.5361 50.7648 77.5744 50.9567C77.5744 50.9951 77.3825 51.1104 77.2673 51.1104ZM78.9179 50.3427C78.6492 49.9589 78.3421 49.575 78.0734 49.1528C78.0734 49.1144 78.3805 48.8841 78.6492 48.6538C78.8795 48.8841 79.2632 49.1144 79.3016 49.3831C79.34 49.6518 79.0714 49.9972 78.9179 50.3427ZM84.4834 48.9225C84.6753 48.8074 84.9056 48.577 85.0975 48.577C85.2894 48.577 85.4814 48.8074 85.7117 48.9225C85.5198 49.0377 85.2894 49.2678 85.0975 49.2294C84.9056 49.2678 84.6753 49.0377 84.4834 48.9225Z" fill="white" />
  </g>
</svg>
  